{"title":"Harry Potter And The Deathly Hallows Part 2 New Source TS Xvid I","uid":6610697,"size":2250592821,"categoryP":"video","categoryS":"movies","magnet":"?xt=urn:btih:ddc7404ed65bf698a47dba5aef337b01e233acaf&amp;dn=Harry+Potter+And+The+Deathly+Hallows+Part+2+New+Source+TS+Xvid+I&amp;tr=udp%3A%2F%2Ftracker.openbittorrent.com%3A80&amp;tr=udp%3A%2F%2Fopen.demonii.com%3A1337&amp;tr=udp%3A%2F%2Ftracker.coppersurfer.tk%3A6969&amp;tr=udp%3A%2F%2Fexodus.desync.com%3A6969","seeders":0,"leechers":1,"uploader":"CondazArow","files":4,"time":1313581500,"description":"CondazArow\n\n------------------\n\nNederlands:Harry Potter and the deathly hallows part 2 New Source TS Xvid IMAGiNE\n\nmet nederlandse ondertiteling.(Voor de Nederlandse piraten:D)\n\nEnglish:Harry Potter And the Deahtly Hallows Part 2 new Source TS Xvid IMAGiNE\n\nwith dutch subtitle (For the dutch pirates:D)\n\n\n******************Details**********************\n\nI'm not ripped the movie,that's a other do,i'm sourced the dutch subtitle and\n\nyes,i'm uploaded.\n\n\nRipper: IMAGiNE (Respect for him)\n\nVideo Codec: Xvid (Media Player fails,use VLC)\n\nAudio Codec:MP3\n\n                                    Audio Bitrate:128 \n\n                                    Subs:Dutch\n\n                                    Resolution:720 x 304 \n\n                                    Release Date: 26/07/11\n\n                                    Theatre Date: 15/07/11\n\nRuntime: 1h 58mn\n\nLanguage: ENGLISH\n\nIMDb URL: http://www.imdb.com\n\n\nVideo\n\nID                               : 0\n\nFormat                           : MPEG-4 Visual\n\nFormat profile                   : Advanced Simple@L5\n\nFormat settings, BVOP            : 2\n\nFormat settings, QPel            : No\n\nFormat settings, GMC             : No warppoints\n\nFormat settings, Matrix          : Default (MPEG)\n\nCodec ID                         : DX50\n\nCodec ID/Hint                    : DivX 5\n\nDuration                         : 1h 58mn\n\nBit rate                         : 2 377 Kbps\n\nWidth                            : 720 pixels\n\nHeight                           : 304 pixels\n\nDisplay aspect ratio             : 2.35:1\n\nFrame rate                       : 29.970 fps\n\nColor space                      : YUV\n\nChroma subsampling               : 4:2:0\n\nBit depth                        : 8 bits\n\nScan type                        : Progressive\n\nCompression mode                 : Lossy\n\nBits/(Pixel*Frame)               : 0.362\n\nStream size                      : 1.96 GiB (94%)\n\nWriting library                  : XviD 64\n\n\n\nAudio\n\nID                               : 1\n\nFormat                           : MPEG Audio\n\nFormat version                   : Version 1\n\nFormat profile                   : Layer 3\n\nCodec ID                         : 55\n\nCodec ID/Hint                    : MP3\n\nDuration                         : 1h 58mn\n\nBit rate mode                    : Constant\n\nBit rate                         : 128 Kbps\n\nChannel(s)                       : 2 channels\n\nSampling rate                    : 44.1 KHz\n\nCompression mode                 : Lossy\n\nStream size                      : 108 MiB (5%)\n\nAlignment                        : Split accross interleaves\n\nInterleave, duration             : 33 ms (1.00 video frame)\n\nInterleave, preload duration     : 500 ms\n\n\n\n\n\n\nEnjoy the new release of HP (FinaL)!\n\n\nWe all want freedom,we dont get,so lets make freedom.","torrent":{"xt":"urn:btih:ddc7404ed65bf698a47dba5aef337b01e233acaf","amp;dn":"Harry+Potter+And+The+Deathly+Hallows+Part+2+New+Source+TS+Xvid+I","amp;tr":["udp%3A%2F%2Ftracker.openbittorrent.com%3A80","udp%3A%2F%2Fopen.demonii.com%3A1337","udp%3A%2F%2Ftracker.coppersurfer.tk%3A6969","udp%3A%2F%2Fexodus.desync.com%3A6969"],"infoHash":"ddc7404ed65bf698a47dba5aef337b01e233acaf","infoHashBuffer":{"type":"Buffer","data":[221,199,64,78,214,91,246,152,164,125,186,90,239,51,123,1,226,51,172,175]},"announce":[],"urlList":[]}}